<svg id="visual" viewBox="0 0 900 600" width="900" height="600" xmlns="http://www.w3.org/2000/svg" xmlns:xlink="http://www.w3.org/1999/xlink" version="1.1"><rect x="0" y="0" width="900" height="600" fill="#FFFFFF"></rect><defs><linearGradient id="grad1_0" x1="33.3%" y1="0%" x2="100%" y2="100%"><stop offset="20%" stop-color="#1b9a09" stop-opacity="1"></stop><stop offset="80%" stop-color="#1b9a09" stop-opacity="1"></stop></linearGradient></defs><defs><linearGradient id="grad1_1" x1="33.3%" y1="0%" x2="100%" y2="100%"><stop offset="20%" stop-color="#1b9a09" stop-opacity="1"></stop><stop offset="80%" stop-color="#79bc65" stop-opacity="1"></stop></linearGradient></defs><defs><linearGradient id="grad1_2" x1="33.3%" y1="0%" x2="100%" y2="100%"><stop offset="20%" stop-color="#bedeb1" stop-opacity="1"></stop><stop offset="80%" stop-color="#79bc65" stop-opacity="1"></stop></linearGradient></defs><defs><linearGradient id="grad1_3" x1="33.3%" y1="0%" x2="100%" y2="100%"><stop offset="20%" stop-color="#bedeb1" stop-opacity="1"></stop><stop offset="80%" stop-color="#ffffff" stop-opacity="1"></stop></linearGradient></defs><defs><linearGradient id="grad2_0" x1="0%" y1="0%" x2="66.7%" y2="100%"><stop offset="20%" stop-color="#1b9a09" stop-opacity="1"></stop><stop offset="80%" stop-color="#1b9a09" stop-opacity="1"></stop></linearGradient></defs><defs><linearGradient id="grad2_1" x1="0%" y1="0%" x2="66.7%" y2="100%"><stop offset="20%" stop-color="#79bc65" stop-opacity="1"></stop><stop offset="80%" stop-color="#1b9a09" stop-opacity="1"></stop></linearGradient></defs><defs><linearGradient id="grad2_2" x1="0%" y1="0%" x2="66.7%" y2="100%"><stop offset="20%" stop-color="#79bc65" stop-opacity="1"></stop><stop offset="80%" stop-color="#bedeb1" stop-opacity="1"></stop></linearGradient></defs><defs><linearGradient id="grad2_3" x1="0%" y1="0%" x2="66.7%" y2="100%"><stop offset="20%" stop-color="#ffffff" stop-opacity="1"></stop><stop offset="80%" stop-color="#bedeb1" stop-opacity="1"></stop></linearGradient></defs><g transform="translate(900, 0)"><path d="M0 432.7C-38.9 433.1 -77.8 433.6 -112 417.9C-146.1 402.3 -175.5 370.5 -196.5 340.3C-217.5 310.2 -230.2 281.8 -264.5 264.5C-298.7 247.1 -354.5 240.9 -368.9 213C-383.4 185.1 -356.6 135.6 -360.3 96.5C-364 57.4 -398.3 28.7 -432.7 0L0 0Z" fill="#deefd8"></path><path d="M0 324.5C-29.2 324.8 -58.4 325.2 -84 313.4C-109.6 301.7 -131.6 277.8 -147.4 255.3C-163.1 232.7 -172.7 211.3 -198.3 198.3C-224 185.3 -265.8 180.7 -276.7 159.8C-287.5 138.8 -267.4 101.7 -270.2 72.4C-273 43.1 -298.8 21.5 -324.5 0L0 0Z" fill="#9ccd8b"></path><path d="M0 216.3C-19.5 216.6 -38.9 216.8 -56 209C-73.1 201.1 -87.7 185.2 -98.2 170.2C-108.8 155.1 -115.1 140.9 -132.2 132.2C-149.3 123.6 -177.2 120.4 -184.5 106.5C-191.7 92.6 -178.3 67.8 -180.1 48.3C-182 28.7 -199.2 14.4 -216.3 0L0 0Z" fill="#53ab3f"></path><path d="M0 108.2C-9.7 108.3 -19.5 108.4 -28 104.5C-36.5 100.6 -43.9 92.6 -49.1 85.1C-54.4 77.6 -57.6 70.4 -66.1 66.1C-74.7 61.8 -88.6 60.2 -92.2 53.3C-95.8 46.3 -89.1 33.9 -90.1 24.1C-91 14.4 -99.6 7.2 -108.2 0L0 0Z" fill="#1b9a09"></path></g><g transform="translate(0, 600)"><path d="M0 -432.7C36.6 -428.8 73.3 -424.9 112 -417.9C150.7 -411 191.5 -401 214.5 -371.5C237.5 -342.1 242.7 -293.2 262.3 -262.3C282 -231.5 316.1 -218.7 337.7 -195C359.4 -171.3 368.8 -136.8 382.5 -102.5C396.3 -68.2 414.5 -34.1 432.7 0L0 0Z" fill="#deefd8"></path><path d="M0 -324.5C27.5 -321.6 54.9 -318.7 84 -313.4C113 -308.2 143.6 -300.7 160.9 -278.6C178.1 -256.6 182 -219.9 196.8 -196.8C211.5 -173.6 237 -164 253.3 -146.3C269.6 -128.5 276.6 -102.6 286.9 -76.9C297.2 -51.1 310.8 -25.6 324.5 0L0 0Z" fill="#9ccd8b"></path><path d="M0 -216.3C18.3 -214.4 36.6 -212.4 56 -209C75.3 -205.5 95.8 -200.5 107.2 -185.8C118.7 -171 121.3 -146.6 131.2 -131.2C141 -115.7 158 -109.3 168.9 -97.5C179.7 -85.7 184.4 -68.4 191.3 -51.2C198.1 -34.1 207.2 -17 216.3 0L0 0Z" fill="#53ab3f"></path><path d="M0 -108.2C9.2 -107.2 18.3 -106.2 28 -104.5C37.7 -102.7 47.9 -100.2 53.6 -92.9C59.4 -85.5 60.7 -73.3 65.6 -65.6C70.5 -57.9 79 -54.7 84.4 -48.8C89.9 -42.8 92.2 -34.2 95.6 -25.6C99.1 -17 103.6 -8.5 108.2 0L0 0Z" fill="#1b9a09"></path></g></svg>